<?xml version="1.0" encoding="UTF-8"?>
<svg xmlns="http://www.w3.org/2000/svg" xmlns:xlink="http://www.w3.org/1999/xlink" viewBox="0 0 64 64" width="64px" height="64px">
<defs>
<linearGradient id="linear0" gradientUnits="userSpaceOnUse" x1="83.444321" y1="45.150002" x2="83.444321" y2="145.595047" gradientTransform="matrix(0.372093,0,0,0.372093,0,0)">
<stop offset="0" style="stop-color:rgb(54.11765%,70.588237%,100%);stop-opacity:1;"/>
<stop offset="1" style="stop-color:rgb(89.411765%,57.254905%,100%);stop-opacity:1;"/>
</linearGradient>
<linearGradient id="linear1" gradientUnits="userSpaceOnUse" x1="86" y1="17.06562" x2="86" y2="155.360748" gradientTransform="matrix(0.372093,0,0,0.372093,0,0)">
<stop offset="0" style="stop-color:rgb(10.196079%,42.745098%,100%);stop-opacity:1;"/>
<stop offset="1" style="stop-color:rgb(78.431374%,13.333334%,100%);stop-opacity:1;"/>
</linearGradient>
</defs>
<g id="surface72978510">
<path style=" stroke:none;fill-rule:nonzero;fill:rgb(80.000001%,80.000001%,80.000001%);fill-opacity:1;" d="M 31.679688 32.320312 L 31.679688 31.679688 L 32.320312 31.679688 L 32.320312 32.320312 Z M 31.679688 32.320312 "/>
<path style=" stroke:none;fill-rule:nonzero;fill:url(#linear0);" d="M 25.359375 54.808594 C 25.355469 54.457031 25.351562 52.941406 25.347656 51.523438 L 25.347656 50.054688 C 18.953125 50.921875 17.40625 46.460938 17.390625 46.414062 C 16.5 44.164062 15.289062 43.523438 15.234375 43.496094 L 15.117188 43.425781 C 14.679688 43.125 13.511719 42.328125 13.84375 41.277344 C 14.144531 40.328125 15.304688 40.230469 15.828125 40.25 C 18.75 40.453125 20.230469 43.078125 20.289062 43.1875 C 21.78125 45.742188 24.054688 45.480469 25.523438 44.941406 C 25.660156 44.289062 25.871094 43.6875 26.148438 43.15625 C 21.441406 42.320312 16.105469 39.816406 16.105469 30.707031 C 16.105469 28.207031 16.886719 25.996094 18.425781 24.125 C 18.082031 22.980469 17.691406 20.644531 18.847656 17.699219 L 19.015625 17.277344 L 19.445312 17.140625 C 19.839844 17.011719 21.996094 16.550781 26.433594 19.453125 C 28.265625 18.984375 30.207031 18.742188 32.207031 18.730469 C 34.214844 18.742188 36.15625 18.984375 37.992188 19.453125 C 42.425781 16.546875 44.578125 17.015625 44.972656 17.140625 L 45.402344 17.28125 L 45.566406 17.699219 C 46.730469 20.640625 46.339844 22.980469 45.996094 24.125 C 47.535156 25.992188 48.3125 28.203125 48.3125 30.707031 C 48.3125 39.820312 42.972656 42.316406 38.253906 43.140625 C 38.789062 44.152344 39.078125 45.421875 39.078125 46.824219 C 39.078125 48.421875 39.070312 53.667969 39.0625 54.808594 L 37.164062 54.792969 C 37.171875 53.65625 37.179688 48.421875 37.179688 46.824219 C 37.179688 44.503906 36.28125 43.476562 35.894531 43.144531 L 34.253906 41.722656 L 36.414062 41.480469 C 41.359375 40.933594 46.410156 39.222656 46.410156 30.707031 C 46.410156 28.492188 45.671875 26.5625 44.21875 24.972656 L 43.808594 24.527344 L 44.039062 23.96875 C 44.195312 23.589844 44.886719 21.648438 43.996094 18.941406 C 43.277344 18.984375 41.558594 19.324219 38.691406 21.269531 L 38.328125 21.515625 L 37.90625 21.398438 C 36.136719 20.90625 34.164062 20.640625 32.203125 20.632812 C 30.253906 20.640625 28.285156 20.90625 26.519531 21.398438 L 26.097656 21.515625 L 25.734375 21.269531 C 22.863281 19.324219 21.140625 18.984375 20.417969 18.941406 C 19.53125 21.648438 20.222656 23.589844 20.378906 23.96875 L 20.609375 24.527344 L 20.203125 24.972656 C 18.742188 26.570312 18.003906 28.5 18.003906 30.707031 C 18.003906 39.21875 23.050781 40.9375 27.984375 41.5 L 30.121094 41.742188 L 28.5 43.160156 C 28.148438 43.46875 27.523438 44.214844 27.308594 45.75 L 27.238281 46.269531 L 26.757812 46.488281 C 25.503906 47.050781 21.210938 48.539062 18.636719 44.125 C 18.621094 44.101562 18.121094 43.226562 17.210938 42.648438 C 17.824219 43.253906 18.570312 44.234375 19.175781 45.769531 C 19.238281 45.949219 20.464844 49.210938 26.089844 47.992188 L 27.234375 47.742188 L 27.246094 51.523438 C 27.25 52.933594 27.253906 54.445312 27.253906 54.792969 Z M 25.359375 54.808594 "/>
<path style=" stroke:none;fill-rule:nonzero;fill:url(#linear1);" d="M 32 56.699219 C 18.378906 56.699219 7.300781 45.621094 7.300781 32 C 7.300781 18.378906 18.378906 7.300781 32 7.300781 C 45.621094 7.300781 56.699219 18.378906 56.699219 32 C 56.699219 45.621094 45.621094 56.699219 32 56.699219 Z M 32 9.199219 C 19.429688 9.199219 9.199219 19.429688 9.199219 32 C 9.199219 44.570312 19.429688 54.800781 32 54.800781 C 44.570312 54.800781 54.800781 44.570312 54.800781 32 C 54.800781 19.429688 44.570312 9.199219 32 9.199219 Z M 32 9.199219 "/>
</g>
</svg>
